<?xml version="1.0" encoding="UTF-8"?>
<svg width="109px" height="31px" viewBox="0 0 109 31" version="1.1" xmlns="http://www.w3.org/2000/svg" xmlns:xlink="http://www.w3.org/1999/xlink">
    <title>logo@2x</title>
    <defs>
        <linearGradient x1="50%" y1="0%" x2="50%" y2="50%" id="linearGradient-1">
            <stop stop-color="#2CB8FF" offset="0%"></stop>
            <stop stop-color="#2857FF" offset="100%"></stop>
        </linearGradient>
    </defs>
    <g id="页面-1" stroke="none" stroke-width="1" fill="none" fill-rule="evenodd">
        <g id="首页" transform="translate(-331.000000, -21.000000)">
            <g id="编组-14" transform="translate(-17.000000, 0.000000)">
                <g id="编组-53" transform="translate(348.000000, 14.926835)">
                    <g id="logo-" transform="translate(0.000000, 6.073165)">
                        <g id="编组-5备份" transform="translate(39.839210, 1.074074)">
                            <g id="AI-FrontPage" transform="translate(0.000000, 20.251465)" fill="#2857FF" fill-rule="nonzero">
                                <path d="M5.12695312,5.9765625 L2.60742188,5.9765625 L2.26074219,7.15820312 L0,7.15820312 L2.69042969,0 L5.10253906,0 L7.79296875,7.15820312 L5.47851562,7.15820312 L5.12695312,5.9765625 Z M4.66308594,4.42871094 L3.87207031,1.85546875 L3.0859375,4.42871094 L4.66308594,4.42871094 Z" id="形状"></path>
                                <polygon id="路径" points="8.38886719 0 10.6056641 0 10.6056641 7.15820312 8.38886719 7.15820312"></polygon>
                                <polygon id="路径" points="15.1373047 0 20.6060547 0 20.6060547 1.53808594 17.3589844 1.53808594 17.3589844 2.78808594 20.1324219 2.78808594 20.1324219 4.23339844 17.3589844 4.23339844 17.3589844 7.15820312 15.1373047 7.15820312"></polygon>
                                <path d="M21.4851562,1.97265625 L23.3455078,1.97265625 L23.3455078,2.82226562 C23.5245443,2.45442708 23.7092773,2.20133464 23.899707,2.06298828 C24.0901367,1.92464193 24.3253255,1.85546875 24.6052734,1.85546875 C24.8982422,1.85546875 25.2188802,1.94661458 25.5671875,2.12890625 L24.9519531,3.54492188 C24.7175781,3.44726562 24.5320312,3.3984375 24.3953125,3.3984375 C24.1348958,3.3984375 23.9330729,3.50585938 23.7898437,3.72070312 C23.5847656,4.0234375 23.4822266,4.58984375 23.4822266,5.41992188 L23.4822266,7.15820312 L21.4851562,7.15820312 L21.4851562,1.97265625 Z" id="路径"></path>
                                <path d="M25.4599609,4.58007812 C25.4599609,3.7890625 25.726888,3.13720703 26.2607422,2.62451172 C26.7945964,2.11181641 27.515625,1.85546875 28.4238281,1.85546875 C29.4622396,1.85546875 30.2467448,2.15657552 30.7773438,2.75878906 C31.203776,3.2438151 31.4169922,3.84114583 31.4169922,4.55078125 C31.4169922,5.34830729 31.1525065,6.00179036 30.6235352,6.51123047 C30.0945638,7.02067057 29.3629557,7.27539062 28.4287109,7.27539062 C27.5953776,7.27539062 26.9215495,7.06380208 26.4072266,6.640625 C25.7757161,6.11653646 25.4599609,5.4296875 25.4599609,4.58007812 Z M27.4521484,4.57519531 C27.4521484,5.0374349 27.5457357,5.37923177 27.7329102,5.60058594 C27.9200846,5.8219401 28.1552734,5.93261719 28.4384766,5.93261719 C28.7249349,5.93261719 28.9601237,5.82356771 29.144043,5.60546875 C29.3279622,5.38736979 29.4199219,5.0374349 29.4199219,4.55566406 C29.4199219,4.10644531 29.3271484,3.77197266 29.1416016,3.55224609 C28.9560547,3.33251953 28.7265625,3.22265625 28.453125,3.22265625 C28.1634115,3.22265625 27.9241536,3.33414714 27.7353516,3.55712891 C27.5465495,3.78011068 27.4521484,4.11946615 27.4521484,4.57519531 Z" id="形状"></path>
                                <path d="M32.1740234,1.97265625 L34.0246094,1.97265625 L34.0246094,2.81738281 C34.3013021,2.47233073 34.58125,2.2257487 34.8644531,2.07763672 C35.1476563,1.92952474 35.4927083,1.85546875 35.8996094,1.85546875 C36.4497396,1.85546875 36.8802409,2.01904297 37.1911133,2.34619141 C37.5019857,2.67333984 37.6574219,3.17871094 37.6574219,3.86230469 L37.6574219,7.15820312 L35.6603516,7.15820312 L35.6603516,4.30664062 C35.6603516,3.98111979 35.6001302,3.7508138 35.4796875,3.61572266 C35.3592448,3.48063151 35.189974,3.41308594 34.971875,3.41308594 C34.7309896,3.41308594 34.5356771,3.50423177 34.3859375,3.68652344 C34.2361979,3.8688151 34.1613281,4.19596354 34.1613281,4.66796875 L34.1613281,7.15820312 L32.1740234,7.15820312 L32.1740234,1.97265625 Z" id="路径"></path>
                                <path d="M41.0414062,0 L41.0414062,1.97265625 L42.1351562,1.97265625 L42.1351562,3.42285156 L41.0414062,3.42285156 L41.0414062,5.26367188 C41.0414062,5.48502604 41.0625651,5.63151042 41.1048828,5.703125 C41.169987,5.81380208 41.2839193,5.86914062 41.4466797,5.86914062 C41.5931641,5.86914062 41.7982422,5.82682292 42.0619141,5.7421875 L42.2083984,7.11425781 C41.716862,7.22167969 41.2578776,7.27539062 40.8314453,7.27539062 C40.3366536,7.27539062 39.9720703,7.21191406 39.7376953,7.08496094 C39.5033203,6.95800781 39.3299805,6.76513672 39.2176758,6.50634766 C39.1053711,6.24755859 39.0492187,5.82845052 39.0492187,5.24902344 L39.0492187,3.42285156 L38.3167969,3.42285156 L38.3167969,1.97265625 L39.0492187,1.97265625 L39.0492187,1.02050781 L41.0414062,0 Z" id="路径"></path>
                                <path d="M43.0044922,0 L46.68125,0 C47.4820313,0 48.0818034,0.190429688 48.4805664,0.571289062 C48.8793294,0.952148438 49.0787109,1.49414062 49.0787109,2.19726562 C49.0787109,2.91992188 48.8614258,3.48470052 48.4268555,3.89160156 C47.9922852,4.2985026 47.3290365,4.50195312 46.4371094,4.50195312 L45.2261719,4.50195312 L45.2261719,7.15820312 L43.0044922,7.15820312 L43.0044922,0 Z M45.2261719,3.05175781 L45.7681641,3.05175781 C46.1945964,3.05175781 46.4940755,2.97770182 46.6666016,2.82958984 C46.8391276,2.68147786 46.9253906,2.49186198 46.9253906,2.26074219 C46.9253906,2.03613281 46.8505208,1.84570312 46.7007813,1.68945312 C46.5510417,1.53320312 46.2694661,1.45507812 45.8560547,1.45507812 L45.2261719,1.45507812 L45.2261719,3.05175781 Z" id="形状"></path>
                                <path d="M51.715625,3.65234375 L49.8162109,3.45214844 C49.8878255,3.12011719 49.9911784,2.85888672 50.1262695,2.66845703 C50.2613607,2.47802734 50.4558594,2.31282552 50.7097656,2.17285156 C50.8920573,2.0719401 51.1427083,1.9938151 51.4617187,1.93847656 C51.7807292,1.88313802 52.1257812,1.85546875 52.496875,1.85546875 C53.0925781,1.85546875 53.5710937,1.88883464 53.9324219,1.95556641 C54.29375,2.02229818 54.5948568,2.16145833 54.8357422,2.37304688 C55.005013,2.51953125 55.1384766,2.72705078 55.2361328,2.99560547 C55.3337891,3.26416016 55.3826172,3.52050781 55.3826172,3.76464844 L55.3826172,6.0546875 C55.3826172,6.29882812 55.3980794,6.49007161 55.4290039,6.62841797 C55.4599284,6.76676432 55.527474,6.94335938 55.6316406,7.15820312 L53.7664062,7.15820312 C53.6915365,7.02473958 53.6427083,6.92301432 53.6199219,6.85302734 C53.5971354,6.78304036 53.574349,6.67317708 53.5515625,6.5234375 C53.2911458,6.77408854 53.0323568,6.953125 52.7751953,7.06054688 C52.4236328,7.20377604 52.0151042,7.27539062 51.5496094,7.27539062 C50.9311198,7.27539062 50.461556,7.13216146 50.140918,6.84570312 C49.8202799,6.55924479 49.6599609,6.20605469 49.6599609,5.78613281 C49.6599609,5.3922526 49.7755208,5.06835938 50.0066406,4.81445312 C50.2377604,4.56054688 50.6641927,4.37174479 51.2859375,4.24804688 C52.0313802,4.09830729 52.5147786,3.99332682 52.7361328,3.93310547 C52.957487,3.87288411 53.191862,3.79394531 53.4392578,3.69628906 C53.4392578,3.45214844 53.3888021,3.28125 53.2878906,3.18359375 C53.1869792,3.0859375 53.0095703,3.03710938 52.7556641,3.03710938 C52.4301432,3.03710938 52.1860026,3.08919271 52.0232422,3.19335938 C51.8962891,3.27473958 51.79375,3.42773438 51.715625,3.65234375 Z M53.4392578,4.69726562 C53.1658203,4.79492188 52.8809896,4.8811849 52.5847656,4.95605469 C52.1811198,5.06347656 51.9255859,5.16927083 51.8181641,5.2734375 C51.707487,5.38085938 51.6521484,5.50292969 51.6521484,5.63964844 C51.6521484,5.79589844 51.7066732,5.92366536 51.8157227,6.02294922 C51.9247721,6.12223307 52.0850911,6.171875 52.2966797,6.171875 C52.5180339,6.171875 52.7239258,6.11816406 52.9143555,6.01074219 C53.1047852,5.90332031 53.2398763,5.77229818 53.3196289,5.61767578 C53.3993815,5.46305339 53.4392578,5.26204427 53.4392578,5.01464844 L53.4392578,4.69726562 Z" id="形状"></path>
                                <path d="M59.9824219,1.97265625 L61.8427734,1.97265625 L61.8427734,6.87011719 L61.8476562,7.09960938 C61.8476562,7.42513021 61.7784831,7.7351888 61.6401367,8.02978516 C61.5017904,8.32438151 61.3178711,8.56282552 61.0883789,8.74511719 C60.8588867,8.92740885 60.5675456,9.05924479 60.2143555,9.140625 C59.8611654,9.22200521 59.4567057,9.26269531 59.0009766,9.26269531 C57.9593099,9.26269531 57.2439779,9.10644531 56.8549805,8.79394531 C56.4659831,8.48144531 56.2714844,8.06315104 56.2714844,7.5390625 C56.2714844,7.47395833 56.2747396,7.38606771 56.28125,7.27539062 L58.2099609,7.49511719 C58.2587891,7.67415365 58.3336589,7.79785156 58.4345703,7.86621094 C58.5810547,7.9671224 58.764974,8.01757812 58.9863281,8.01757812 C59.2727865,8.01757812 59.4868164,7.94108073 59.628418,7.78808594 C59.7700195,7.63509115 59.8408203,7.36816406 59.8408203,6.98730469 L59.8408203,6.20117188 C59.6455078,6.43229167 59.4501953,6.5999349 59.2548828,6.70410156 C58.9488932,6.86686198 58.6184896,6.94824219 58.2636719,6.94824219 C57.5703125,6.94824219 57.0104167,6.64550781 56.5839844,6.04003906 C56.28125,5.61035156 56.1298828,5.04231771 56.1298828,4.3359375 C56.1298828,3.52864583 56.3251953,2.91341146 56.7158203,2.49023438 C57.1064453,2.06705729 57.617513,1.85546875 58.2490234,1.85546875 C58.6526693,1.85546875 58.9855143,1.92382812 59.2475586,2.06054688 C59.5096029,2.19726562 59.7545573,2.4235026 59.9824219,2.73925781 L59.9824219,1.97265625 Z M58.1123047,4.48730469 C58.1123047,4.86165365 58.1920573,5.13916016 58.3515625,5.31982422 C58.5110677,5.50048828 58.7210286,5.59082031 58.9814453,5.59082031 C59.2288411,5.59082031 59.4363607,5.49723307 59.6040039,5.31005859 C59.7716471,5.12288411 59.8554688,4.84049479 59.8554688,4.46289062 C59.8554688,4.08528646 59.7675781,3.79638672 59.5917969,3.59619141 C59.4160156,3.39599609 59.2011719,3.29589844 58.9472656,3.29589844 C58.6933594,3.29589844 58.4907227,3.38785807 58.3393555,3.57177734 C58.1879883,3.75569661 58.1123047,4.0608724 58.1123047,4.48730469 Z" id="形状"></path>
                                <path d="M68.6007813,5.05859375 L64.6164063,5.05859375 C64.6522135,5.37760417 64.7384766,5.61523438 64.8751953,5.77148438 C65.0672526,5.99609375 65.3179036,6.10839844 65.6271484,6.10839844 C65.8224609,6.10839844 66.0080078,6.05957031 66.1837891,5.96191406 C66.2912109,5.9000651 66.4067708,5.79101562 66.5304688,5.63476562 L68.4884766,5.81542969 C68.1889974,6.33626302 67.8276693,6.70979818 67.4044922,6.93603516 C66.9813151,7.16227214 66.3742188,7.27539062 65.5832031,7.27539062 C64.8963542,7.27539062 64.3559896,7.17854818 63.9621094,6.98486328 C63.5682292,6.79117839 63.2418945,6.4835612 62.9831055,6.06201172 C62.7243164,5.64046224 62.5949219,5.14485677 62.5949219,4.57519531 C62.5949219,3.76464844 62.8545247,3.10872396 63.3737305,2.60742188 C63.8929362,2.10611979 64.6098958,1.85546875 65.5246094,1.85546875 C66.2667969,1.85546875 66.8527344,1.96777344 67.2824219,2.19238281 C67.7121094,2.41699219 68.0392578,2.74251302 68.2638672,3.16894531 C68.4884766,3.5953776 68.6007813,4.15039062 68.6007813,4.83398438 L68.6007813,5.05859375 Z M66.5792969,4.10644531 C66.5402344,3.72233073 66.4368815,3.44726562 66.2692383,3.28125 C66.1015951,3.11523438 65.8810547,3.03222656 65.6076172,3.03222656 C65.291862,3.03222656 65.0395833,3.15755208 64.8507813,3.40820312 C64.7303385,3.56445312 64.6538411,3.79720052 64.6212891,4.10644531 L66.5792969,4.10644531 Z" id="形状"></path>
                            </g>
                            <g id="编组" transform="translate(1.463542, 0.000000)" fill="#231815">
                                <polygon id="Fill-1" points="37.570879 9.26329023 37.5934693 9.26329023 37.5934693 8.44723734 37.570879 8.42117293"></polygon>
                                <polygon id="Fill-2" points="17.5784041 0 18.9831297 4.21058647 21.2750026 4.21058647 19.8811734 0"></polygon>
                                <polygon id="Fill-3" points="24.8285109 11.3685835 23.8226129 15.5791699 25.6809454 15.5791699 26.6977451 11.3685835"></polygon>
                                <polygon id="Fill-4" points="30.3111324 11.3685835 30.9847052 15.5791699 32.7755314 15.5791699 32.0741782 11.3685835"></polygon>
                                <polygon id="Fill-5" points="18.6329556 9.26329023 17.1676709 5.05270376 19.206959 5.05270376 20.8642694 9.26329023"></polygon>
                                <g transform="translate(0.000000, 0.023635)">
                                    <path d="M18.4002488,12.8340576 L18.7971385,10.3407649 L21.0546437,10.3407649 L20.5477295,13.7712139 C20.4862584,14.2338491 20.032352,15.0151174 19.6862428,15.2871212 C19.2951438,15.5943256 18.8056019,15.9065587 17.9539149,15.9065587 L17.3935476,15.9065587 L17.3935476,13.9257304 C17.3935476,13.9257304 17.6759584,13.8320147 17.7623744,13.7840141 C17.8594809,13.7350991 18.3222962,13.4128088 18.4002488,12.8340576" id="Fill-6"></path>
                                    <path d="M30.2466721,8.3067701 C30.0261778,8.50014429 29.8110289,8.69306133 29.3633586,8.68711839 L26.624775,8.68711839 L26.624775,7.65167502 L30.5936722,7.65167502 C30.5936722,7.65167502 30.481866,8.10196717 30.2466721,8.3067701 L30.2466721,8.3067701 Z M26.624775,5.6511893 L30.6230715,5.6511893 L30.6230715,4.61940313 L26.624775,4.61940313 L26.624775,5.6511893 Z M32.7852519,2.62074601 L29.7500032,2.62074601 L30.0943306,1.92999329 L32.7162082,1.92999329 L32.7162082,0.00128001829 L21.9039699,0.00128001829 L21.9039699,12.7799769 C21.8772433,13.5379305 21.2358054,13.9539365 20.9948207,13.9932513 L20.9440402,13.9932513 L20.9440402,15.9763654 L21.5779056,15.9763654 C22.520463,15.9763654 23.1022116,15.4963585 23.3516597,15.2673267 C23.6015532,15.0364662 24.1040129,14.4353148 24.1601388,13.3994143 L24.1601388,1.92999329 L27.527688,1.92999329 L27.2203323,2.62074601 L24.572619,2.62074601 L24.572619,10.6176603 L27.5147701,10.6176603 L27.5147701,12.887407 C27.5539691,13.7395334 27.0381461,13.9932513 27.0381461,13.9932513 L26.8987224,14.0631952 L26.8987224,15.9763654 L27.2038509,15.9763654 C28.1210181,15.9068787 28.9214792,15.3098416 29.0987655,15.0638952 C29.3099055,14.8572637 29.8047927,14.1399963 29.7923203,13.2549551 L29.7722753,10.6176603 L30.1990097,10.6176603 C31.0355517,10.6423463 31.7130705,10.2085116 32.0226534,9.870221 C32.3896985,9.5758168 32.7950516,8.71089016 32.7852519,8.02928042 L32.7852519,2.62074601 Z" id="Fill-8"></path>
                                    <g transform="translate(0.000000, 0.110264)" id="Fill-10">
                                        <path d="M0,2.54997929 L0,0.688924127 L0.889995145,0.688924127 L1.19690538,0 L3.76443892,0 L3.59205248,0.620351719 L7.93601276,0.620351719 L7.93601276,2.54997929 L5.542202,2.54997929 L5.542202,3.23981771 L7.87008719,3.23981771 L7.87008719,5.10315862 L5.57516478,5.10315862 L6.22640247,5.65036643 C6.38676195,5.80854012 6.56894815,5.87665538 6.77296105,5.85974085 L7.93601276,5.85974085 L7.93601276,7.79028272 L5.95290046,7.79028272 C5.68964363,7.79028272 5.51770263,7.78113973 5.43084124,7.76376805 C5.32838935,7.74045344 5.24063707,7.6910813 5.16491176,7.6179374 L4.13950194,6.61678024 L3.31899591,7.58456549 C3.18135402,7.72079601 2.91943352,7.79028272 2.53278898,7.79028272 L0.0685982244,7.79028272 L0.0685982244,5.92831326 L1.67620207,5.92831326 C1.83611611,5.9406563 1.98444863,5.87025529 2.1207542,5.72213889 L2.70294822,5.10315862 L0,5.10315862 L0,3.23981771 L2.87399833,3.23981771 L2.87399833,2.54997929 L0,2.54997929 Z"></path>
                                    </g>
                                    <polygon id="Fill-12" points="37.7445694 8.29246132 37.7445694 9.07967257 37.72007 9.07967257 37.72007 8.2673181"></polygon>
                                    <path d="M13.069699,4.59640852 C13.0558902,4.9506993 12.9917464,5.41150588 12.6059928,5.67619537 C12.069234,6.04557208 11.7632146,5.96968528 11.7632146,5.96968528 L10.8790102,5.96968528 L10.8790102,2.31797597 L13.069699,2.31797597 L13.069699,4.59640852 Z M8.41749212,0.249374991 L8.41749212,7.83028329 L12.8206963,7.83028329 C14.4937803,7.83028329 15.4661824,6.36054801 15.4661824,5.2487607 L15.4661824,0.249374991 L8.41749212,0.249374991 Z" id="Fill-14"></path>
                                    <path d="M2.80014388,11.3109273 L12.4947657,11.3109273 L12.4947657,10.4153716 L2.80014388,10.4153716 L2.80014388,11.3109273 Z M12.1121301,13.8252489 C11.9615704,13.9706224 11.6377333,14.0949671 11.2689065,14.137482 L2.80014388,14.137482 L2.80014388,13.1728968 L12.5148106,13.1728968 C12.5148106,13.1728968 12.4096861,13.5459307 12.1121301,13.8252489 L12.1121301,13.8252489 Z M0.336398565,8.41534308 L0.336398565,15.9121359 L12.6003357,15.9121359 C13.9491371,15.9121359 15.1856869,14.7486907 15.1852416,13.1395249 L15.1852416,8.41534308 L0.336398565,8.41534308 Z" id="Fill-16"></path>
                                    <polygon id="Fill-18" points="35.4742799 15.8698039 35.4649256 15.8698039 35.4649256 10.013263"></polygon>
                                    <path d="M41.4170467,8.73310762 L41.4170467,10.6348491 L39.9595572,10.6348491 L39.9595572,15.8696667 L37.6891341,15.8696667 L37.6797798,10.0135831 L37.6771072,9.02659752 C37.5096206,9.27025815 37.2784357,9.58569122 36.983107,9.58569122 L35.3122502,9.58569122 L35.3122502,7.68029258 L36.0089231,7.68029258 C36.185764,7.69309276 36.3563686,7.62726325 36.5145009,7.48646124 L37.6739891,6.36873098 L37.670871,5.61900599 L35.293987,5.64049201 L35.293987,3.72000743 L39.9595572,3.72000743 L39.9595572,8.29241561 L39.9350578,8.26727239 L39.9350578,9.07962685 L39.9595572,9.07962685 L39.9595572,8.29241561 L40.2152415,8.53927628 C40.3733737,8.68007829 40.543533,8.74270775 40.7230465,8.73310762 L41.4170467,8.73310762 Z" id="Fill-19"></path>
                                    <polygon id="Fill-20" points="35.2938979 1.93022186 39.8556799 1.93022186 39.8556799 0.00288004114 35.2938979 0.00288004114"></polygon>
                                    <path d="M65.9420924,2.0053315 L54.5267243,2.0053315 C54.493316,2.0053315 54.4656986,2.03367477 54.4656986,2.06796097 L54.4656986,12.3995371 C54.4656986,13.2086916 55.1049093,13.8642438 55.892898,13.8642438 L65.9420924,13.8642438 C65.9755006,13.8642438 66,13.892587 66,13.9268732 L66,15.7321562 C66,15.7668995 65.9755006,15.7947856 65.9420924,15.7947856 L54.3623558,15.7947856 C53.172132,15.7947856 52.2077479,14.8046001 52.2077479,13.5835541 L52.2077479,0.0656466521 C52.2077479,0.031360448 52.2349199,0.00301718596 52.2683282,0.00301718596 L65.9420924,0.00301718596 C65.9755006,0.00301718596 66,0.031360448 66,0.0656466521 L66,1.94270204 C66,1.97698824 65.9755006,2.0053315 65.9420924,2.0053315" id="Fill-21"></path>
                                    <polygon id="Fill-22" points="64.2499435 3.6982014 61.3924265 8.22672324 64.2499435 12.7246161 61.7723894 12.7246161 60.1625584 10.1728082 58.5527273 12.7246161 56.0756187 12.7246161 58.9331357 8.22672324 56.0756187 3.6982014 58.5135283 3.6982014 60.1625584 6.29389563 61.8120339 3.6982014"></polygon>
                                    <polygon id="Fill-23" points="46.6579511 13.9393991 50.4531256 13.9425992 50.4531256 15.869941 40.5678542 15.869941 40.5678542 13.9425992 44.399555 13.9393991 44.4084638 5.64670924 41.456513 5.64670924 41.456513 3.72028172 44.4084638 3.72028172 44.399555 0 46.6579511 0 46.6641873 3.72028172 49.6829546 3.72028172 49.6829546 5.64670924 46.6641873 5.64670924"></polygon>
                                </g>
                            </g>
                        </g>
                        <g id="编组-10">
                            <rect id="矩形" fill="url(#linearGradient-1)" fill-rule="nonzero" x="0" y="0" width="32.4770642" height="29" rx="3.24522803"></rect>
                            <g id="编组-11" transform="translate(1.712496, 4.758788)" fill="#FFFFFF">
                                <path d="M0,2.02 L21.21586,0 L21.5891595,1.83636364 L27.9974692,1.83636364 L27.9974692,16.2993293 C27.9974692,17.3778467 27.2031234,18.2916459 26.1351036,18.4417569 L5.57132669,21.3320109 C4.60859098,21.4673241 3.63771815,21.1468666 2.9446985,20.4650356 L2.36423073,19.8939394 L2.36423073,19.8939394 L3.30847783,20.2380144 C3.79141588,20.4139925 4.31030523,20.4681311 4.81916819,20.395633 L24.9892512,17.5219845 C26.0414056,17.3720832 26.8288767,16.4801716 26.8472607,15.4175516 L27.0642202,2.8769697 L27.0642202,2.8769697 L5.28841084,2.8769697 L5.28841084,17.9421524 C5.28841084,18.7496424 4.63381083,19.4042424 3.82632078,19.4042424 C2.98877855,19.4042424 2.28006792,18.7853914 2.16720242,17.9554888 L0,2.02 L0,2.02 Z" id="路径-16"></path>
                                <g id=".org" transform="translate(19.416517, 5.929220)" fill-rule="nonzero" stroke="#FFFFFF" stroke-width="0.2">
                                    <path d="M0.498302783,1.2898849 C0.423625236,1.2898849 0.359130991,1.31364594 0.311608916,1.36795688 C0.257297972,1.41887339 0.233536935,1.48336764 0.233536935,1.55804518 C0.233536935,1.63272273 0.257297972,1.69382254 0.311608916,1.74813349 C0.359130991,1.79565556 0.423625236,1.82281103 0.498302783,1.82281103 C0.57298033,1.82281103 0.634080141,1.79565556 0.688391084,1.74813349 C0.739307594,1.69382254 0.766463065,1.63272273 0.766463065,1.55804518 C0.766463065,1.48336764 0.739307594,1.41887339 0.688391084,1.36795688 C0.634080141,1.31364594 0.57298033,1.2898849 0.498302783,1.2898849 Z" id="路径"></path>
                                    <path d="M2.14763276,0 C1.87947248,0 1.66562314,0.0848608488 1.50608474,0.261371414 C1.34315191,0.434487546 1.26507993,0.655125753 1.26507993,0.926680469 C1.26507993,1.19484075 1.34315191,1.41547896 1.50269031,1.58520066 C1.66562314,1.76171122 1.87947248,1.8499665 2.14763276,1.8499665 C2.41239861,1.8499665 2.62964238,1.76171122 2.79257521,1.58520066 C2.94871917,1.41547896 3.03018559,1.19484075 3.03018559,0.926680469 C3.03018559,0.655125753 2.94871917,0.434487546 2.78918078,0.261371414 C2.62624795,0.0848608488 2.41239861,0 2.14763276,0 Z M2.14763276,0.315682358 C2.30717115,0.315682358 2.43276521,0.376782169 2.52102049,0.505770659 C2.59569804,0.614392545 2.63643125,0.756958771 2.63643125,0.926680469 C2.63643125,1.09300773 2.59569804,1.23217952 2.52102049,1.34419584 C2.43276521,1.4697899 2.30717115,1.53428415 2.14763276,1.53428415 C1.98469993,1.53428415 1.86250031,1.4697899 1.77424502,1.34419584 C1.69956748,1.23557396 1.6622287,1.09640217 1.6622287,0.926680469 C1.6622287,0.756958771 1.69956748,0.614392545 1.77424502,0.505770659 C1.86250031,0.376782169 1.98469993,0.315682358 2.14763276,0.315682358 Z" id="形状"></path>
                                    <path d="M4.36043877,0 C4.25181688,0 4.16016717,0.0305499056 4.08209519,0.0950441507 C4.01760094,0.142566226 3.96329,0.210454905 3.91576792,0.298710188 L3.91576792,0.0475220753 L3.53219689,0.0475220753 L3.53219689,1.80244443 L3.91576792,1.80244443 L3.91576792,0.872369526 C3.91576792,0.723014432 3.95989557,0.604209243 4.05493972,0.512559527 C4.13640613,0.431093112 4.22805585,0.393754338 4.32988887,0.393754338 C4.41135528,0.393754338 4.4928217,0.40393764 4.58107698,0.431093112 L4.58107698,0.0441276414 C4.51997717,0.0135777358 4.44529962,0 4.36043877,0 Z" id="路径"></path>
                                    <path d="M5.69408639,0 C5.45647601,0 5.26299328,0.0814664148 5.11703262,0.244399245 C4.96767752,0.407332074 4.89639441,0.621181413 4.89639441,0.885947261 C4.89639441,1.15071311 4.96767752,1.36456245 5.11703262,1.52410084 C5.26299328,1.68024481 5.45647601,1.76171122 5.69408639,1.76171122 C5.91133016,1.76171122 6.08444629,1.6700615 6.21343478,1.4901565 L6.21343478,1.74813349 C6.21343478,2.06042141 6.06747412,2.21656537 5.7755528,2.21656537 C5.63977545,2.21656537 5.54133686,2.19619877 5.48023705,2.15885999 C5.41574281,2.11812679 5.3750096,2.05023811 5.35464299,1.95179952 L4.96767752,1.95179952 C5.00162186,2.14867669 5.08308828,2.29124292 5.21207677,2.38628707 C5.34106526,2.47454235 5.52775913,2.52206443 5.7755528,2.52206443 C6.32545111,2.52206443 6.60040026,2.24372084 6.60040026,1.69042811 L6.60040026,0.0475220753 L6.21343478,0.0475220753 L6.21343478,0.261371414 C6.08444629,0.0848608488 5.91133016,0 5.69408639,0 Z M5.7551862,0.312287924 C5.90114686,0.312287924 6.01655762,0.363204433 6.09802403,0.465037451 C6.17609601,0.56687047 6.21682922,0.706042262 6.21682922,0.885947261 C6.21682922,1.06245783 6.17609601,1.19823519 6.09802403,1.3000682 C6.01655762,1.39511235 5.90114686,1.44602886 5.75179177,1.44602886 C5.58207007,1.44602886 5.46326488,1.38832349 5.38858733,1.27630717 C5.32409309,1.18126302 5.29354318,1.05227453 5.29354318,0.885947261 C5.29354318,0.702647828 5.33427639,0.563476036 5.41574281,0.465037451 C5.49720922,0.363204433 5.60922554,0.312287924 5.7551862,0.312287924 Z" id="形状"></path>
                                </g>
                                <g id="编组-15备份" transform="translate(6.216732, 4.846330)">
                                    <polygon id="Fill-1" points="4.59121182 0 3.36645324 2.97520344 4.3946994 2.97520344 5.12777175 0.992536285 5.85942597 2.97520344 6.9127933 2.97520344 5.68925027 0"></polygon>
                                    <polygon id="Fill-2" points="11.4614458 3.02959522 12.4636723 3.02959522 12.4636723 0.0543917872 11.4614458 0.0543917872"></polygon>
                                    <path d="M2.8417913,1.65693324 C2.73108926,1.53155074 2.60428326,1.42841837 2.37021884,1.37660162 C2.52426989,1.32789188 2.59628193,1.27687693 2.67548503,1.19318837 C2.79560637,1.0675052 2.85627474,0.916264437 2.85627474,0.740368125 C2.85627474,0.531297066 2.7713998,0.355300528 2.603473,0.213180317 C2.43564749,0.0715612347 2.1942907,0 1.88041547,0 L0,0 L0,0.651868727 L1.63602021,0.651868727 C1.63602021,0.651868727 1.89013862,0.663895825 1.88649244,0.896119047 C1.88304882,1.14778608 1.62872785,1.14507998 1.62872785,1.14507998 L0,1.14507998 L0,1.79935413 L1.52248225,1.79935413 C1.63227274,1.79935413 1.80708676,1.77730445 1.89732969,1.84315281 C1.96873403,1.89557091 1.99770089,1.93696418 1.99770089,2.02496245 C1.99770089,2.1198763 1.96225193,2.19554679 1.89165786,2.25197393 C1.82025352,2.30800016 1.75421717,2.32153064 1.52481175,2.32443719 L0,2.32443719 L0,2.97520344 L1.73355549,2.97520344 C1.80759318,2.97520344 1.95820062,2.96087114 2.18497269,2.93411085 C2.35512771,2.91386523 2.48244012,2.88169275 2.56670736,2.83659113 C2.70343907,2.76563125 2.81059622,2.66781085 2.88898906,2.54473354 C2.96738191,2.42195692 3.00667962,2.28244258 3.00667962,2.12859594 C3.00667962,1.93906892 2.95127795,1.78211529 2.8417913,1.65693324" id="Fill-3" transform="translate(1.503340, 1.487602) rotate(-360.000000) translate(-1.503340, -1.487602) "></path>
                                    <polygon id="Fill-6" points="9.16044163 1.01524917 9.89185147 2.99761564 10.9455638 2.99761564 9.72178678 0.0224122024 8.62360847 0.0224122024 7.39922373 2.99761564 8.42710728 2.99761564"></polygon>
                                </g>
                                <g id="编组-4" transform="translate(6.346093, 10.161212)">
                                    <rect id="矩形" x="0" y="0" width="9.9546557" height="1"></rect>
                                    <rect id="矩形备份-3" x="11.4478541" y="0" width="7.71485817" height="5.75393939"></rect>
                                    <rect id="矩形备份" x="0" y="2.44848485" width="9.9546557" height="1"></rect>
                                    <rect id="矩形备份-2" x="0" y="4.8969697" width="9.9546557" height="1"></rect>
                                </g>
                            </g>
                        </g>
                    </g>
                </g>
            </g>
        </g>
    </g>
</svg>